<?xml version="1.0" encoding="UTF-8"?>
<svg id="_图层_1" data-name="图层 1" xmlns="http://www.w3.org/2000/svg" viewBox="0 0 349 44">
  <defs>
    <style>
      .cls-1 {
        stroke-width: 0px;
      }
    </style>
  </defs>
  <g>
    <path class="cls-1" d="M202.61,35.55V1.39h11.34c3.25,0,5.88.64,7.9,1.91,2.29,1.46,3.44,3.61,3.44,6.46-.16,4.12-2.14,6.68-5.95,7.67v.09c2.23.19,4.07,1.09,5.53,2.7,1.46,1.61,2.18,3.53,2.18,5.76,0,3.19-1.18,5.62-3.53,7.3-2.14,1.52-5.1,2.28-8.87,2.28h-12.03ZM206.79,15.89h6.69c2.35,0,4.12-.36,5.3-1.07,1.46-.9,2.18-2.4,2.18-4.51,0-3.53-2.35-5.3-7.06-5.3h-7.11v10.87ZM206.79,31.92h7.95c2.79,0,4.82-.48,6.09-1.44,1.27-.96,1.9-2.51,1.9-4.65s-.77-3.79-2.32-4.88c-1.36-.96-3.22-1.44-5.58-1.44h-8.04v12.41Z"/>
    <path class="cls-1" d="M242.66,10.18c2.73,0,4.96.77,6.69,2.32,1.89,1.67,2.83,3.97,2.83,6.88v16.17h-3.76v-3.35h-.14c-.71,1.02-1.75,1.88-3.11,2.56-1.58.81-3.33,1.21-5.25,1.21-2.35,0-4.34-.68-5.95-2.04-1.7-1.43-2.56-3.28-2.56-5.58,0-2.54.94-4.55,2.83-6.04,1.83-1.46,4.2-2.18,7.11-2.18,2.42,0,4.69.42,6.83,1.25v-1.86c0-1.89-.54-3.33-1.63-4.32-1.02-.93-2.35-1.39-3.99-1.39-2.88,0-5.38,1.21-7.48,3.62l-2.56-2.7c1.15-1.36,2.57-2.45,4.28-3.25,1.83-.87,3.78-1.3,5.85-1.3ZM235.6,28.16c0,1.3.47,2.34,1.39,3.11.9.74,2.14,1.12,3.72,1.12,2.05,0,3.78-.56,5.21-1.67,1.52-1.18,2.28-2.71,2.28-4.6v-1.3c-1.52-.84-3.76-1.3-6.74-1.39-1.64,0-2.99.37-4.04,1.12-1.21.87-1.81,2.07-1.81,3.62Z"/>
    <path class="cls-1" d="M258.97,35.55V10.64h3.81v3.81h.14c.65-1.05,1.72-2.01,3.21-2.88,1.61-.93,3.17-1.39,4.69-1.39,2.63,0,4.79.81,6.46,2.42,1.7,1.64,2.55,3.79,2.55,6.46v16.5h-4v-15.38c0-1.95-.51-3.52-1.53-4.69-.96-1.12-2.21-1.67-3.76-1.67-1.98,0-3.73.77-5.25,2.32-1.55,1.58-2.32,3.47-2.32,5.67v13.75h-4Z"/>
    <path class="cls-1" d="M308.32,35.55h-3.76v-3.63h-.14c-.71,1.09-1.81,2.02-3.3,2.79-1.58.84-3.16,1.25-4.74,1.25-3.25,0-5.9-1.08-7.95-3.25-2.26-2.39-3.39-5.65-3.39-9.8,0-3.9,1.18-7.05,3.53-9.43,2.17-2.2,4.82-3.3,7.95-3.3,1.74,0,3.36.4,4.88,1.21,1.33.71,2.26,1.53,2.79,2.46h.14V0h4v35.55ZM289.22,22.86c0,2.85.73,5.16,2.18,6.92,1.39,1.7,3.19,2.55,5.39,2.55s4.14-.87,5.62-2.6c1.46-1.7,2.18-3.86,2.18-6.46,0-3.04-.81-5.42-2.42-7.16-1.42-1.55-3.19-2.32-5.3-2.32s-4.01.79-5.44,2.37c-1.49,1.64-2.23,3.87-2.23,6.69Z"/>
    <path class="cls-1" d="M337.59,35.55h-4.55l8.78-14.82-.05-.05c-1.02.87-2.81,1.3-5.34,1.3-2.94,0-5.36-.98-7.25-2.93-1.92-1.98-2.88-4.49-2.88-7.53s1.08-5.78,3.25-7.85c2.11-2.01,4.74-3.02,7.9-3.02,3.32,0,5.99,1.04,8.04,3.11,2.01,2.04,3.02,4.65,3.02,7.81,0,1.89-.53,4.07-1.58,6.55-.65,1.55-1.92,4.03-3.81,7.43l-5.53,9.99ZM330.49,11.34c0,2.17.59,3.89,1.76,5.16,1.15,1.24,2.74,1.86,4.79,1.86,2.2,0,3.97-.6,5.3-1.81,1.36-1.24,2.04-2.96,2.04-5.16s-.62-3.98-1.86-5.25c-1.21-1.24-2.85-1.86-4.93-1.86s-3.8.6-5.06,1.81c-1.36,1.27-2.04,3.02-2.04,5.25Z"/>
  </g>
  <g>
    <polygon class="cls-1" points="20.17 1.31 26.28 1.31 26.28 35.58 20.17 35.58 20.17 21.3 6.59 21.3 6.59 35.58 .49 35.58 .49 1.31 6.59 1.31 6.59 15.2 20.17 15.2 20.17 1.31"/>
    <polygon class="cls-1" points="97.61 22.69 82.79 1.31 77.92 1.31 77.92 35.58 84.03 35.58 84.03 14.09 98.92 35.58 103.71 35.58 103.71 1.31 97.61 1.31 97.61 22.69"/>
    <path class="cls-1" d="M129.54.84c-9.71,0-17.58,7.87-17.58,17.58s7.87,17.58,17.58,17.58,17.58-7.87,17.58-17.58S139.25.84,129.54.84ZM129.54,29.9c-6.34,0-11.48-5.14-11.48-11.48s5.14-11.48,11.48-11.48,11.48,5.14,11.48,11.48-5.14,11.48-11.48,11.48Z"/>
    <path class="cls-1" d="M171.69,23.08c4.5-1.43,7.76-5.65,7.76-10.62,0-6.15-4.98-11.13-11.12-11.15h0s-12.98,0-12.98,0v34.27h6.1v-15.25l12.72,15.25h7.93l-10.42-12.49ZM161.46,17.51V7.41h6.8c2.79,0,5.04,2.26,5.04,5.05s-2.26,5.05-5.05,5.05h-6.8Z"/>
    <path class="cls-1" d="M52.1.84c-9.71,0-17.58,7.87-17.58,17.58s7.87,17.58,17.58,17.58,17.58-7.87,17.58-17.58S61.81.84,52.1.84ZM52.1,29.9c-6.34,0-11.48-5.14-11.48-11.48s5.14-11.48,11.48-11.48,11.48,5.14,11.48,11.48-5.14,11.48-11.48,11.48Z"/>
  </g>
</svg>