<svg width="1000" height="95" viewBox="0 0 1000 95" fill="none" xmlns="http://www.w3.org/2000/svg">
<path d="M431.025 0.972656L456.57 48.8975H456.766L482.507 0.972656H492.027V72.2826H483.285V16.3019H483.09L458.803 62.5784H454.528L430.149 16.3019H429.953V72.2826H421.211V0.972656H431.02H431.025Z" fill="black"/>
<path d="M527.485 19.3105C533.182 19.3105 537.844 20.9264 541.472 24.1626C545.421 27.655 547.397 32.4419 547.397 38.5233V72.2878H539.527V65.303H539.238C537.746 67.4403 535.578 69.2191 532.73 70.6393C529.429 72.325 525.769 73.1632 521.754 73.1632C516.831 73.1632 512.686 71.7429 509.32 68.8931C505.758 65.9176 503.977 62.0388 503.977 57.2519C503.977 51.9481 505.954 47.7432 509.903 44.6373C513.721 41.5966 518.677 40.0786 524.766 40.0786C529.816 40.0786 534.576 40.9494 539.047 42.6956V38.8167C539.047 34.8726 537.914 31.8645 535.648 29.7924C533.513 27.8506 530.73 26.882 527.293 26.882C521.27 26.882 516.057 29.4059 511.651 34.4489L506.308 28.8238C508.705 25.9787 511.684 23.7156 515.246 22.0346C519.064 20.2232 523.149 19.3152 527.485 19.3152V19.3105ZM512.719 56.8561C512.719 59.5755 513.693 61.7407 515.633 63.3565C517.512 64.9118 520.099 65.6848 523.405 65.6848C527.68 65.6848 531.308 64.5207 534.282 62.1924C537.457 59.7338 539.043 56.5348 539.043 52.586V49.8666C535.867 48.1204 531.172 47.1519 524.958 46.9563C521.526 46.9563 518.71 47.7339 516.509 49.2846C513.982 51.0959 512.719 53.6198 512.719 56.8514V56.8561Z" fill="black"/>
<path d="M582.076 94.4993C573.525 94.4993 566.303 91.6542 560.415 85.9593L564.979 79.6544C569.837 84.5065 575.535 86.9325 582.076 86.9325C587.904 86.9325 592.179 85.3167 594.897 82.0804C597.037 79.4914 598.1 75.9338 598.1 71.4077V64.5207H597.811C596.385 66.7186 594.315 68.5299 591.597 69.9548C588.421 71.6358 584.957 72.4787 581.204 72.4787C574.859 72.4787 569.483 70.2482 565.077 65.7826C560.736 61.2565 558.471 54.7234 558.275 46.1833C558.275 38.3604 560.508 31.9204 564.979 26.8774C569.446 21.8344 575.083 19.3105 581.88 19.3105C585.442 19.3105 588.841 20.2186 592.081 22.03C594.93 23.6458 597.07 25.5875 598.492 27.8506H598.59V20.2838H606.46V71.4123C606.46 78.7184 604.353 84.3807 600.147 88.39C595.872 92.4644 589.848 94.504 582.081 94.504L582.076 94.4993ZM567.017 45.7968C567.017 51.6827 568.504 56.3718 571.483 59.8642C574.332 63.2262 577.927 64.9072 582.267 64.9072C587.316 64.9072 591.335 63.2262 594.315 59.8642C597.229 56.5673 598.688 52.1669 598.688 46.6676C598.688 40.2649 597.07 35.2871 593.83 31.7248C590.916 28.4932 587.223 26.8727 582.757 26.8727C578.29 26.8727 574.565 28.6515 571.586 32.2091C568.541 35.8319 567.017 40.358 567.017 45.7922V45.7968Z" fill="black"/>
<path d="M620.638 6.70138C620.638 5.15076 621.123 3.82365 622.093 2.72471C623.128 1.56058 624.489 0.978516 626.173 0.978516C627.856 0.978516 629.245 1.56058 630.35 2.72471C631.32 3.75846 631.805 5.08556 631.805 6.70138C631.805 8.19146 631.283 9.48132 630.247 10.5803C629.147 11.7444 627.786 12.3264 626.168 12.3264C624.55 12.3264 623.287 11.7444 622.186 10.5803C621.151 9.48132 620.629 8.18681 620.629 6.70138H620.638ZM622.093 72.2838V20.2798H630.448V72.2838H622.093Z" fill="black"/>
<path d="M668.525 19.3105C672.344 19.3105 675.971 20.0882 679.403 21.6388C682.643 23.1289 685.296 25.0334 687.371 27.3663L682.125 32.6049C680.634 31.0543 678.792 29.7598 676.591 28.726C673.999 27.5014 671.309 26.882 668.53 26.882C663.22 26.882 659.042 28.563 655.998 31.9251C652.953 35.2871 651.428 40.0088 651.428 46.0902C651.428 52.1716 652.888 56.9259 655.802 60.3531C658.781 63.8455 662.926 65.5917 668.236 65.5917C674.064 65.5917 679.114 62.9747 683.389 57.7315L688.536 62.8769C686.723 65.6569 684.07 68.0177 680.573 69.9595C676.619 72.0922 672.381 73.1585 667.849 73.1585C660.208 73.1585 654.086 70.6999 649.489 65.7872C644.953 60.9352 642.687 54.3741 642.687 46.0902C642.687 37.8062 645.018 31.7015 649.68 26.7843C654.408 21.8018 660.688 19.3152 668.525 19.3152V19.3105Z" fill="black"/>
<path d="M721.76 0.973407H731.281L712.92 31.9206L713.018 32.0184C715.61 30.533 719.331 29.625 724.189 29.299C730.339 29.299 735.393 31.3386 739.342 35.413C743.356 39.5527 745.366 44.7912 745.366 51.1288C745.366 57.4663 743.1 63.1938 738.563 67.5244C734.157 71.7292 728.656 73.8293 722.049 73.8293C715.121 73.8293 709.517 71.664 705.241 67.3288C701.031 63.0588 698.929 57.6293 698.929 51.031C698.929 47.0869 700.029 42.5282 702.23 37.3501C703.591 34.1185 706.244 28.9451 710.193 21.8253L721.751 0.96875L721.76 0.973407ZM707.577 51.4221C707.577 56.0786 708.873 59.734 711.461 62.3836C713.988 64.9726 717.419 66.2625 721.76 66.2625C726.101 66.2625 729.691 65.0005 732.348 62.4767C735.197 59.8271 736.624 56.1718 736.624 51.5153C736.624 46.8587 735.425 43.3338 733.029 40.7447C730.633 38.1557 727.266 36.8658 722.926 36.8658C718.585 36.8658 714.734 38.1278 711.951 40.6516C709.037 43.3058 707.582 46.8913 707.582 51.4221H707.577Z" fill="black"/>
<path d="M784.119 72.2826V0.972656H810.154C817.73 0.972656 823.623 2.52793 827.833 5.62917C832.691 9.25195 835.121 14.8444 835.121 22.4113C835.121 29.9781 832.691 35.7382 827.833 39.4867C823.819 42.5926 818.476 44.1432 811.804 44.1432H792.861V72.2779H784.119V72.2826ZM792.861 36.5811H810.928C821.031 36.5811 826.08 31.8919 826.08 22.5137C826.08 17.792 824.686 14.2344 821.903 11.841C819.31 9.64309 815.651 8.54416 810.928 8.54416H792.861V36.5811Z" fill="black"/>
<path d="M845.126 72.2831V20.2791H852.996V29.8855H853.192C856.689 23.1568 862.386 19.6365 870.289 19.3105C871.585 19.3105 872.816 19.4735 873.981 19.7948L872.718 27.3617C871.613 27.0404 870.452 26.8774 869.221 26.8774C864.689 26.8774 860.931 28.8518 857.952 32.7958C854.973 36.7399 853.486 41.7224 853.486 47.7386V72.2831H845.131H845.126Z" fill="black"/>
<path d="M878.443 46.2811C878.443 38.2626 880.676 31.7947 885.148 26.8774C889.745 21.8344 895.866 19.3105 903.508 19.3105C911.149 19.3105 917.266 21.8344 921.868 26.8774C926.335 31.7947 928.573 38.2626 928.573 46.2811C928.573 54.2996 926.339 60.7722 921.868 65.6848C917.336 70.6673 911.215 73.1539 903.508 73.1539C895.801 73.1539 889.679 70.6673 885.148 65.6848C880.681 60.7722 878.443 54.3043 878.443 46.2811ZM887.185 46.2811C887.185 51.9062 888.612 56.5022 891.46 60.0597C894.435 63.7477 898.454 65.587 903.503 65.587C908.553 65.587 912.571 63.743 915.551 60.0597C918.399 56.5022 919.826 51.9108 919.826 46.2811C919.826 40.6514 918.399 36.06 915.551 32.5025C912.571 28.7493 908.557 26.8774 903.503 26.8774C898.449 26.8774 894.435 28.754 891.46 32.5025C888.612 36.06 887.185 40.6514 887.185 46.2811Z" fill="black"/>
<path d="M41.0147 0.978516H53.7336V72.2838H41.0147V42.5845H12.7142V72.2838H0V0.978516H12.7142V29.8815H41.0147V0.978516Z" fill="black"/>
<path d="M202.337 45.4809L171.458 0.978516H161.322V72.2838H174.036V27.5672L205.064 72.2838H215.051V0.978516H202.337V45.4809Z" fill="black"/>
<path d="M268.845 0C248.615 0 232.218 16.377 232.218 36.5816C232.218 56.7862 248.62 73.1632 268.845 73.1632C289.071 73.1632 305.473 56.7862 305.473 36.5816C305.473 16.377 289.075 0 268.845 0ZM268.845 60.4649C255.641 60.4649 244.937 49.7735 244.937 36.5863C244.937 23.399 255.641 12.703 268.845 12.703C282.049 12.703 292.758 23.3943 292.758 36.5863C292.758 49.7782 282.054 60.4649 268.845 60.4649Z" fill="black"/>
<path d="M356.675 46.2857C366.051 43.3009 372.844 34.5326 372.844 24.1812C372.844 11.3897 362.475 1.01502 349.676 0.982422H322.644V72.283H335.358V40.5489L361.85 72.283H378.378L356.675 46.2857ZM335.358 34.6816V13.6807H349.518C355.323 13.6807 360.027 18.3838 360.027 24.1812C360.027 29.9786 355.318 34.6816 349.513 34.6816H335.358Z" fill="black"/>
<path d="M107.528 0C87.2979 0 70.9004 16.377 70.9004 36.5816C70.9004 56.7862 87.3025 73.1632 107.528 73.1632C127.753 73.1632 144.155 56.7862 144.155 36.5816C144.155 16.377 127.753 0 107.528 0ZM107.528 60.4649C94.3194 60.4649 83.6146 49.7735 83.6146 36.5863C83.6146 23.399 94.3194 12.703 107.528 12.703C120.736 12.703 131.436 23.3943 131.436 36.5863C131.436 49.7782 120.732 60.4649 107.528 60.4649Z" fill="black"/>
<path d="M987.92 36.6614H958.505C951.847 36.6614 946.425 31.2505 946.425 24.5964V13.0436C946.425 6.39405 951.843 0.978516 958.505 0.978516H987.92C994.578 0.978516 1000 6.38939 1000 13.0436V24.601C1000 31.2505 994.582 36.6661 987.92 36.6661V36.6614ZM958.505 2.79456C952.845 2.79456 948.243 7.39054 948.243 13.0436V24.601C948.243 30.254 952.845 34.85 958.505 34.85H987.92C993.58 34.85 998.182 30.254 998.182 24.601V13.0436C998.182 7.39054 993.58 2.79456 987.92 2.79456H958.505Z" fill="black"/>
<path d="M963.172 28.8251C961.596 28.8251 960.263 28.3362 959.162 27.3583C958.062 26.399 957.414 25.1511 957.223 23.6144H959.479C959.652 24.5225 960.067 25.2629 960.71 25.8403C961.391 26.4689 962.24 26.7809 963.251 26.7809C964.403 26.7809 965.34 26.413 966.058 25.6819C966.809 24.9136 967.186 23.8845 967.186 22.5947C967.186 21.235 966.785 20.1872 965.979 19.4562C965.279 18.8089 964.408 18.4876 963.358 18.4876C961.96 18.4876 960.799 18.9253 959.871 19.7961H957.852L958.85 9.16992H968.231V11.1583H960.841L960.211 17.4678C961.083 16.788 962.221 16.4481 963.62 16.4481C965.261 16.4481 966.65 17.0068 967.788 18.1244C968.958 19.2746 969.541 20.7321 969.541 22.4969C969.541 24.434 968.963 25.9753 967.811 27.1301C966.678 28.2663 965.13 28.8344 963.172 28.8344V28.8251Z" fill="black"/>
<path d="M981.047 28.6425C978.217 28.6425 975.938 27.7438 974.208 25.9464C972.478 24.149 971.611 21.7416 971.611 18.7241C971.611 15.7067 972.539 13.2248 974.39 11.446C976.157 9.75569 978.469 8.9082 981.337 8.9082C982.824 8.9082 984.176 9.16897 985.402 9.69515C986.521 10.1655 987.43 10.8127 988.13 11.6323L986.53 13.2295C985.901 12.5496 985.192 12.0327 984.409 11.6881C983.481 11.2691 982.428 11.0595 981.234 11.0595C979.206 11.0595 977.532 11.7161 976.203 13.0246C974.772 14.4355 974.054 16.34 974.054 18.7335C974.054 21.1269 974.711 22.9569 976.021 24.3865C977.332 25.7974 979.033 26.5052 981.131 26.5052C982.456 26.5052 983.654 26.305 984.721 25.9045C985.701 25.5366 986.339 25.0849 986.638 24.5448V20.5681H981.42V18.5239H988.941V25.4854C988.33 26.3934 987.37 27.1338 986.059 27.7112C984.609 28.3399 982.94 28.6518 981.052 28.6518L981.047 28.6425Z" fill="black"/>
</svg>
