<svg width="1109" height="91" viewBox="0 0 1109 91" fill="none" xmlns="http://www.w3.org/2000/svg">
<path d="M505.88 88.9702V3.49023H560.66V12.5602H516.35V40.5902H557.87V49.6602H516.35V79.9002H562.75V88.9702H505.88Z" fill="black"/>
<path d="M601.7 25.4697C608.52 25.4697 614.1 27.4097 618.45 31.2897C623.18 35.4797 625.54 41.2197 625.54 48.4997V88.9697H616.12V80.5997H615.77C613.99 83.1597 611.39 85.2897 607.97 86.9997C604.02 89.0197 599.64 90.0197 594.83 90.0197C588.94 90.0197 583.98 88.3197 579.94 84.9097C575.68 81.3397 573.55 76.6897 573.55 70.9497C573.55 64.5897 575.91 59.5497 580.64 55.8297C585.22 52.1797 591.15 50.3597 598.44 50.3597C604.48 50.3597 610.19 51.4097 615.53 53.4997V48.8497C615.53 44.1197 614.18 40.5197 611.46 38.0397C608.9 35.7097 605.57 34.5497 601.46 34.5497C594.25 34.5497 588.01 37.5697 582.73 43.6197L576.34 36.8697C579.2 33.4597 582.77 30.7497 587.04 28.7297C591.61 26.5597 596.5 25.4697 601.69 25.4697H601.7ZM584.03 70.4797C584.03 73.7397 585.19 76.3397 587.52 78.2697C589.77 80.1297 592.87 81.0597 596.82 81.0597C601.94 81.0597 606.28 79.6597 609.84 76.8697C613.64 73.9297 615.54 70.0897 615.54 65.3597V62.0997C611.74 60.0097 606.12 58.8397 598.67 58.6097C594.57 58.6097 591.19 59.5397 588.55 61.3997C585.53 63.5697 584.02 66.5997 584.02 70.4697L584.03 70.4797Z" fill="black"/>
<path d="M642.52 88.9697V26.6297H651.94V38.1497H652.18C656.37 30.0897 663.19 25.8597 672.65 25.4697C674.2 25.4697 675.68 25.6597 677.07 26.0497L675.56 35.1197C674.24 34.7297 672.85 34.5397 671.37 34.5397C665.94 34.5397 661.45 36.8997 657.88 41.6297C654.31 46.3597 652.53 52.3297 652.53 59.5397V88.9597H642.53L642.52 88.9697Z" fill="black"/>
<path d="M686.37 88.97V0H696.37V35.59H696.72C698.73 32.72 701.49 30.35 704.97 28.5C708.84 26.48 712.96 25.47 717.3 25.47C725.44 25.47 731.99 28.22 736.96 33.73C742.15 39.47 744.75 47.34 744.75 57.34C744.75 67.89 742.04 76.07 736.61 81.88C731.57 87.31 724.9 90.02 716.6 90.02C712.57 90.02 708.54 88.97 704.5 86.88C700.7 84.86 697.91 82.54 696.13 79.9H695.78V88.97H686.36H686.37ZM695.68 58.27C695.68 64.86 697.42 70.25 700.91 74.43C704.55 78.77 709.36 80.94 715.33 80.94C720.75 80.94 725.26 78.85 728.82 74.66C732.46 70.32 734.28 64.7 734.28 57.79C734.28 50.88 732.42 44.84 728.7 40.58C725.21 36.55 720.71 34.53 715.21 34.53C709.71 34.53 705.48 36.47 701.84 40.34C697.73 44.68 695.68 50.65 695.68 58.25V58.27Z" fill="black"/>
<path d="M778.48 90.0099C772.66 90.0099 767.82 87.9899 763.94 83.9599C759.83 79.6999 757.77 74.1199 757.77 67.2199V26.6299H767.77V63.9599C767.77 69.5399 768.78 73.7299 770.8 76.5199C772.89 79.4699 776.22 80.9399 780.8 80.9399C785.38 80.9399 789.29 79.1599 793.01 75.5899C796.88 71.8699 798.83 67.5999 798.83 62.7999V26.6299H808.83V88.9699H799.41V79.8999H799.18C796.85 83.0799 793.75 85.5999 789.88 87.4599C786.23 89.1699 782.43 90.0199 778.48 90.0199V90.0099Z" fill="black"/>
<path d="M880.82 88.97H871.4V79.9H871.05C869.27 82.61 866.52 84.94 862.79 86.88C858.84 88.97 854.88 90.02 850.93 90.02C842.79 90.02 836.16 87.31 831.05 81.88C825.39 75.91 822.56 67.73 822.56 57.34C822.56 47.57 825.5 39.7 831.4 33.73C836.82 28.23 843.45 25.47 851.28 25.47C855.62 25.47 859.69 26.48 863.49 28.5C866.82 30.28 869.15 32.34 870.47 34.66H870.82V0H880.82V88.97ZM833.02 57.22C833.02 64.35 834.85 70.13 838.49 74.55C841.98 78.81 846.48 80.95 851.98 80.95C857.48 80.95 862.33 78.78 866.05 74.44C869.69 70.18 871.51 64.79 871.51 58.28C871.51 50.68 869.49 44.71 865.46 40.37C861.89 36.5 857.47 34.56 852.2 34.56C846.93 34.56 842.16 36.54 838.59 40.49C834.87 44.6 833 50.18 833 57.24L833.02 57.22Z" fill="black"/>
<path d="M900.36 71.4105C904.46 77.7705 910.51 80.9505 918.5 80.9505C926.49 80.9505 930.83 77.8905 930.83 71.7605C930.83 68.7305 929.35 66.3705 926.41 64.6705C924.08 63.2705 920.24 62.0305 914.9 60.9505C901.87 58.3205 895.36 52.4605 895.36 43.3905C895.36 37.6505 897.65 33.1605 902.22 29.9005C906.41 26.9605 911.68 25.4805 918.04 25.4805C922.69 25.4805 927.03 26.4505 931.06 28.3905C934.94 30.2505 937.73 32.5005 939.44 35.1405L933.04 41.5405C929.79 37.2805 924.7 34.9505 917.81 34.5605C914.24 34.5605 911.41 35.2205 909.32 36.5405C907 38.0105 905.83 40.1905 905.83 43.0505C905.83 46.0705 907.38 48.3605 910.48 49.9105C912.11 50.7705 915.87 51.8905 921.76 53.2805C927.73 54.6805 932.27 56.6105 935.37 59.0905C939.32 62.1905 941.3 66.3405 941.3 71.5305C941.3 77.5805 938.86 82.2705 933.97 85.6005C929.7 88.5405 924.35 90.0205 917.92 90.0205C912.26 90.0205 907.1 88.7805 902.45 86.3005C898.1 83.9705 895 81.1405 893.15 77.8105L900.36 71.4105Z" fill="black"/>
<path d="M978.04 88.97L1006.3 43.85L980.37 3.5H992.11L1012.93 36.41L1033.28 3.5H1044.68L1018.63 43.97L1047.36 88.98H1035.5L1012.47 51.53L989.33 88.98H978.05L978.04 88.97Z" fill="black"/>
<path d="M1080.03 3.48973H1091.43L1069.45 40.5897L1069.56 40.6997C1072.66 38.9197 1077.12 37.8297 1082.94 37.4397C1090.3 37.4397 1096.35 39.8897 1101.08 44.7697C1105.89 49.7297 1108.29 56.0097 1108.29 63.6097C1108.29 71.2097 1105.57 78.0697 1100.15 83.2597C1094.88 88.2997 1088.29 90.8197 1080.38 90.8197C1072.47 90.8197 1065.38 88.2197 1060.26 83.0297C1055.22 77.9097 1052.7 71.3997 1052.7 63.4897C1052.7 58.7597 1054.02 53.2997 1056.66 47.0897C1058.29 43.2197 1061.46 37.0097 1066.19 28.4797L1080.03 3.46973V3.48973ZM1063.05 63.9697C1063.05 69.5497 1064.6 73.9297 1067.7 77.1097C1070.72 80.2097 1074.83 81.7597 1080.03 81.7597C1085.23 81.7597 1089.53 80.2497 1092.71 77.2197C1096.12 74.0397 1097.83 69.6597 1097.83 64.0797C1097.83 58.4997 1096.39 54.2797 1093.52 51.1697C1090.65 48.0697 1086.62 46.5197 1081.42 46.5197C1076.22 46.5197 1071.61 48.0297 1068.28 51.0497C1064.79 54.2297 1063.05 58.5297 1063.05 63.9597V63.9697Z" fill="black"/>
<path d="M49.27 3.26953H64.55V89.0395H49.27V53.3195H15.28V89.0395H0V3.26953H15.28V38.0395H49.27V3.26953Z" fill="black"/>
<path d="M243.08 56.7995L205.98 3.26953H193.81V89.0395H209.08V35.2595L246.36 89.0395H258.36V3.26953H243.08V56.7995Z" fill="black"/>
<path d="M322.98 2.08984C298.68 2.08984 278.97 21.7898 278.97 46.0898C278.97 70.3898 298.67 90.0898 322.98 90.0898C347.29 90.0898 366.99 70.3898 366.99 46.0898C366.99 21.7898 347.29 2.08984 322.98 2.08984ZM322.98 74.8198C307.11 74.8198 294.25 61.9598 294.25 46.0998C294.25 30.2398 307.11 17.3698 322.98 17.3698C338.85 17.3698 351.71 30.2298 351.71 46.0998C351.71 61.9698 338.85 74.8198 322.98 74.8198Z" fill="black"/>
<path d="M428.5 57.7695C439.76 54.1795 447.92 43.6295 447.92 31.1795C447.92 15.7895 435.47 3.31953 420.09 3.26953H387.61V89.0395H402.89V50.8695L434.72 89.0395H454.57L428.5 57.7695ZM402.89 43.8095V18.5495H419.9C426.87 18.5495 432.53 24.2095 432.53 31.1795C432.53 38.1495 426.87 43.8095 419.9 43.8095H402.89Z" fill="black"/>
<path d="M129.18 2.08984C104.88 2.08984 85.1699 21.7898 85.1699 46.0898C85.1699 70.3898 104.87 90.0898 129.18 90.0898C153.49 90.0898 173.18 70.3898 173.18 46.0898C173.18 21.7898 153.48 2.08984 129.18 2.08984ZM129.18 74.8198C113.31 74.8198 100.45 61.9598 100.45 46.0998C100.45 30.2398 113.31 17.3698 129.18 17.3698C145.05 17.3698 157.9 30.2298 157.9 46.0998C157.9 61.9698 145.04 74.8198 129.18 74.8198Z" fill="black"/>
</svg>
