<?xml version="1.0" encoding="UTF-8"?>
<svg id="_图层_2" data-name="图层 2" xmlns="http://www.w3.org/2000/svg" viewBox="0 0 192.57 21.67">
  <g id="_图层_1-2" data-name="图层 1">
    <g>
      <g>
        <path d="M121.9,21.42V.84h7.5c2.18,0,3.88,.45,5.1,1.34,1.4,1.05,2.1,2.66,2.1,4.84s-.7,3.85-2.1,4.93c-1.16,.9-2.7,1.34-4.62,1.34h-5.46v8.12h-2.52Zm2.52-10.3h5.21c2.91,0,4.37-1.35,4.37-4.06,0-1.36-.4-2.39-1.2-3.08-.75-.63-1.8-.95-3.16-.95h-5.21V11.12Z"/>
        <path d="M145.45,6.13c1.64,0,2.99,.47,4.03,1.4,1.14,1.01,1.71,2.39,1.71,4.14v9.74h-2.27v-2.02h-.08c-.43,.62-1.05,1.13-1.88,1.54-.95,.49-2.01,.73-3.16,.73-1.42,0-2.61-.41-3.58-1.23-1.03-.86-1.54-1.98-1.54-3.36,0-1.53,.57-2.74,1.71-3.64,1.1-.88,2.53-1.32,4.28-1.32,1.46,0,2.83,.25,4.12,.76v-1.12c0-1.14-.33-2.01-.98-2.6-.62-.56-1.42-.84-2.41-.84-1.74,0-3.24,.73-4.51,2.18l-1.54-1.62c.69-.82,1.55-1.47,2.58-1.96,1.1-.52,2.28-.78,3.53-.78Zm-4.26,10.84c0,.78,.28,1.41,.84,1.88,.54,.45,1.29,.67,2.24,.67,1.23,0,2.28-.34,3.14-1.01,.91-.71,1.37-1.63,1.37-2.77v-.78c-.91-.5-2.27-.78-4.06-.84-.99,0-1.8,.22-2.44,.67-.73,.52-1.09,1.25-1.09,2.18Z"/>
        <path d="M168.35,21.42h-2.27v-2.18h-.08c-.43,.65-1.09,1.21-1.99,1.68-.95,.5-1.9,.76-2.86,.76-1.96,0-3.56-.65-4.79-1.96-1.36-1.44-2.04-3.41-2.04-5.91,0-2.35,.71-4.25,2.13-5.68,1.31-1.33,2.9-1.99,4.79-1.99,1.05,0,2.03,.24,2.94,.73,.8,.43,1.36,.92,1.68,1.48h.08V0h2.41V21.42Zm-11.51-7.64c0,1.72,.44,3.11,1.32,4.17,.84,1.03,1.92,1.54,3.25,1.54s2.49-.52,3.39-1.57c.88-1.03,1.32-2.32,1.32-3.89,0-1.83-.49-3.27-1.46-4.31-.86-.93-1.92-1.4-3.19-1.4s-2.42,.48-3.28,1.43c-.9,.99-1.34,2.33-1.34,4.03Z"/>
        <path d="M185.99,21.42h-2.74l5.29-8.93-.03-.03c-.62,.52-1.69,.78-3.22,.78-1.77,0-3.23-.59-4.37-1.76-1.16-1.19-1.74-2.71-1.74-4.54s.65-3.48,1.96-4.73c1.27-1.21,2.86-1.82,4.76-1.82s3.61,.63,4.84,1.88c1.21,1.23,1.82,2.8,1.82,4.7,0,1.14-.32,2.46-.95,3.95-.39,.93-1.16,2.43-2.3,4.48l-3.33,6.02Zm-4.28-14.59c0,1.31,.35,2.34,1.06,3.11,.69,.75,1.65,1.12,2.88,1.12,1.33,0,2.39-.36,3.19-1.09,.82-.75,1.23-1.78,1.23-3.11s-.37-2.4-1.12-3.16c-.73-.75-1.72-1.12-2.97-1.12s-2.29,.36-3.05,1.09c-.82,.77-1.23,1.82-1.23,3.16Z"/>
      </g>
      <g>
        <polygon points="11.86 .77 15.54 .77 15.54 21.42 11.86 21.42 11.86 12.82 3.68 12.82 3.68 21.42 0 21.42 0 .77 3.68 .77 3.68 9.14 11.86 9.14 11.86 .77"/>
        <polygon points="58.52 13.65 49.59 .77 46.66 .77 46.66 21.42 50.34 21.42 50.34 8.47 59.31 21.42 62.2 21.42 62.2 .77 58.52 .77 58.52 13.65"/>
        <path d="M77.76,.48c-5.85,0-10.59,4.74-10.59,10.59s4.74,10.59,10.59,10.59,10.59-4.74,10.59-10.59S83.61,.48,77.76,.48Zm0,17.51c-3.82,0-6.92-3.1-6.92-6.92s3.1-6.92,6.92-6.92,6.92,3.1,6.92,6.92-3.1,6.92-6.92,6.92Z"/>
        <path d="M103.16,13.89c2.71-.86,4.68-3.4,4.68-6.4,0-3.7-3-6.71-6.7-6.72h0s-7.82,0-7.82,0V21.42h3.68V12.23l7.66,9.19h4.78l-6.28-7.53Zm-6.17-3.36V4.45h4.1c1.68,0,3.04,1.36,3.04,3.04s-1.36,3.04-3.04,3.04h-4.09Z"/>
        <path d="M31.1,.48c-5.85,0-10.59,4.74-10.59,10.59s4.74,10.59,10.59,10.59,10.59-4.74,10.59-10.59S36.95,.48,31.1,.48Zm0,17.51c-3.82,0-6.92-3.1-6.92-6.92s3.1-6.92,6.92-6.92,6.92,3.1,6.92,6.92-3.1,6.92-6.92,6.92Z"/>
      </g>
    </g>
  </g>
</svg>