<svg width="324" height="91" viewBox="0 0 324 91" fill="none" xmlns="http://www.w3.org/2000/svg">
<g clip-path="url(#clip0_544_13384)">
<path d="M125.895 63.75L133.32 77.7H133.38L140.865 63.75H143.64V84.51H141.105V68.205H141.045L133.98 81.675H132.735L125.64 68.205H125.58V84.51H123.045V63.75H125.895Z" fill="white"/>
<path d="M153.945 69.0898C155.595 69.0898 156.96 69.5548 158.01 70.4998C159.165 71.5198 159.735 72.9148 159.735 74.6848V84.5098H157.44V82.4698H157.35C156.915 83.0848 156.285 83.6098 155.46 84.0298C154.5 84.5248 153.435 84.7648 152.265 84.7648C150.84 84.7648 149.625 84.3448 148.65 83.5198C147.615 82.6498 147.09 81.5248 147.09 80.1298C147.09 78.5848 147.66 77.3548 148.815 76.4548C149.925 75.5698 151.365 75.1348 153.135 75.1348C154.605 75.1348 155.985 75.3898 157.29 75.8998V74.7748C157.29 73.6198 156.96 72.7498 156.3 72.1498C155.685 71.5798 154.875 71.3098 153.87 71.3098C152.115 71.3098 150.6 72.0448 149.325 73.5148L147.765 71.8798C148.455 71.0548 149.325 70.3948 150.36 69.8998C151.47 69.3748 152.655 69.1048 153.915 69.1048L153.945 69.0898ZM149.64 80.0248C149.64 80.8198 149.925 81.4498 150.48 81.9148C151.02 82.3648 151.785 82.5898 152.745 82.5898C153.99 82.5898 155.04 82.2448 155.91 81.5698C156.84 80.8498 157.29 79.9198 157.29 78.7798V77.9848C156.36 77.4748 154.995 77.1898 153.195 77.1448C152.19 77.1448 151.38 77.3698 150.735 77.8198C150 78.3448 149.64 79.0798 149.64 80.0248Z" fill="white"/>
<path d="M169.815 90.975C167.325 90.975 165.225 90.15 163.515 88.485L164.835 86.655C166.245 88.065 167.91 88.77 169.8 88.77C171.495 88.77 172.74 88.305 173.535 87.36C174.15 86.61 174.465 85.5749 174.465 84.2549V82.245H174.375C173.955 82.89 173.355 83.415 172.56 83.82C171.63 84.315 170.625 84.555 169.545 84.555C167.7 84.555 166.14 83.91 164.85 82.605C163.59 81.285 162.93 79.38 162.87 76.905C162.87 74.625 163.515 72.75 164.82 71.28C166.125 69.81 167.76 69.075 169.74 69.075C170.775 69.075 171.765 69.345 172.71 69.87C173.535 70.335 174.165 70.905 174.57 71.565H174.6V69.36H176.895V84.24C176.895 86.37 176.28 88.02 175.065 89.19C173.82 90.375 172.065 90.975 169.815 90.975ZM165.435 76.8C165.435 78.51 165.87 79.875 166.74 80.895C167.565 81.87 168.615 82.365 169.875 82.365C171.345 82.365 172.515 81.87 173.385 80.895C174.225 79.935 174.66 78.66 174.66 77.055C174.66 75.195 174.195 73.74 173.25 72.705C172.41 71.76 171.33 71.295 170.025 71.295C168.72 71.295 167.64 71.82 166.77 72.855C165.885 73.905 165.435 75.225 165.435 76.815V76.8Z" fill="white"/>
<path d="M181.02 65.415C181.02 64.965 181.155 64.575 181.44 64.26C181.74 63.915 182.13 63.75 182.625 63.75C183.12 63.75 183.525 63.915 183.84 64.26C184.125 64.56 184.26 64.95 184.26 65.415C184.26 65.85 184.11 66.225 183.81 66.54C183.495 66.885 183.09 67.05 182.625 67.05C182.16 67.05 181.785 66.885 181.47 66.54C181.17 66.225 181.02 65.85 181.02 65.415ZM181.455 84.51V69.375H183.885V84.51H181.455Z" fill="white"/>
<path d="M194.955 69.0898C196.065 69.0898 197.115 69.3148 198.12 69.7648C199.065 70.1998 199.83 70.7548 200.43 71.4298L198.9 72.9598C198.465 72.5098 197.925 72.1348 197.295 71.8348C196.545 71.4748 195.765 71.2948 194.955 71.2948C193.41 71.2948 192.195 71.7898 191.31 72.7648C190.425 73.7398 189.975 75.1198 189.975 76.8898C189.975 78.6598 190.395 80.0398 191.25 81.0448C192.12 82.0648 193.32 82.5748 194.865 82.5748C196.56 82.5748 198.03 81.8098 199.275 80.2798L200.775 81.7798C200.25 82.5898 199.47 83.2798 198.465 83.8348C197.31 84.4498 196.08 84.7648 194.76 84.7648C192.54 84.7648 190.755 84.0448 189.42 82.6198C188.1 81.2098 187.44 79.2898 187.44 76.8898C187.44 74.4898 188.115 72.7048 189.48 71.2648C190.86 69.8098 192.675 69.0898 194.955 69.0898Z" fill="white"/>
<path d="M216.675 84.51L209.13 63.75H211.845L218.025 81.51H218.085L224.19 63.75H226.905L219.36 84.51H216.675Z" fill="white"/>
<path d="M228.675 84.5099V82.3649L235.395 74.2799C236.475 72.9749 237.15 72.0749 237.45 71.5649C238.02 70.6199 238.305 69.6749 238.305 68.7449C238.305 67.6499 237.96 66.8249 237.285 66.2549C236.67 65.7449 235.815 65.4899 234.75 65.4899C232.515 65.5799 231.165 66.6299 230.745 68.6249H228.225C228.495 66.9899 229.245 65.6849 230.52 64.6949C231.72 63.7499 233.16 63.2849 234.84 63.2849C236.52 63.2849 238.02 63.7499 239.1 64.6649C240.27 65.6399 240.855 67.0049 240.855 68.7299C240.795 70.2899 240.315 71.6699 239.385 72.8849C238.485 74.0849 237.525 75.2549 236.535 76.3649L231.645 82.3199V82.3499H241.17V84.4949H228.69L228.675 84.5099Z" fill="white"/>
<path d="M267.93 84.51H264.99L259.17 76.23H255.015V84.51H252.48V63.75H258.885C261.39 63.75 263.28 64.185 264.57 65.055C266.1 66.075 266.85 67.74 266.85 70.05C266.73 73.35 265.095 75.345 261.9 76.035L267.915 84.51H267.93ZM255.03 74.025H258.84C260.565 74.025 261.84 73.785 262.65 73.32C263.7 72.705 264.225 71.61 264.225 70.05C264.225 68.49 263.7 67.41 262.65 66.75C261.81 66.225 260.565 65.955 258.945 65.955H255.015V74.04L255.03 74.025Z" fill="white"/>
<path d="M281.64 67.5599C280.605 66.2549 279.105 65.6099 277.155 65.6099C276.06 65.6099 275.145 65.8799 274.38 66.4049C273.525 67.0049 273.105 67.8449 273.105 68.9249C273.105 69.9449 273.45 70.7249 274.155 71.2649C274.755 71.7299 275.88 72.2099 277.545 72.7049C279.525 73.2749 281.025 73.9799 282.03 74.8199C283.365 75.9299 284.04 77.3549 284.04 79.1099C284.04 80.9699 283.32 82.4399 281.865 83.5199C280.56 84.4799 278.94 84.9599 276.975 84.9599C275.64 84.9599 274.35 84.7199 273.105 84.2249C271.77 83.6999 270.735 82.9799 270.03 82.0799L271.665 80.4449C272.28 81.1349 273.105 81.6899 274.125 82.0799C275.085 82.4549 276.09 82.6499 277.125 82.6499C278.385 82.6499 279.405 82.3649 280.17 81.8099C280.995 81.2099 281.415 80.3549 281.415 79.2749C281.415 77.9399 280.95 76.9349 280.005 76.2599C279.36 75.8099 278.1 75.2999 276.195 74.7299C274.41 74.2199 273.045 73.5449 272.1 72.6899C271.02 71.7299 270.495 70.5299 270.495 69.1049C270.495 67.2599 271.185 65.8049 272.58 64.7549C273.84 63.7949 275.4 63.3149 277.275 63.3149C279.765 63.3749 281.79 64.2449 283.35 65.9099L281.655 67.5749L281.64 67.5599Z" fill="white"/>
<path d="M303.21 84.51H300.27L294.45 76.23H290.295V84.51H287.76V63.75H294.165C296.67 63.75 298.56 64.185 299.85 65.055C301.38 66.075 302.13 67.74 302.13 70.05C302.01 73.35 300.375 75.345 297.18 76.035L303.195 84.51H303.21ZM290.31 74.025H294.12C295.845 74.025 297.12 73.785 297.93 73.32C298.98 72.705 299.505 71.61 299.505 70.05C299.505 68.49 298.98 67.41 297.93 66.75C297.09 66.225 295.845 65.955 294.225 65.955H290.295V74.04L290.31 74.025Z" fill="white"/>
<path d="M11.97 63.6748H15.675V84.5098H11.97V75.8248H3.705V84.5098H0V63.6748H3.705V72.1198H11.97V63.6748Z" fill="white"/>
<path d="M59.04 76.6798L50.025 63.6748H47.07V84.5098H50.775V71.4448L59.835 84.5098H62.745V63.6748H59.04V76.6798Z" fill="white"/>
<path d="M78.45 63.3899C72.555 63.3899 67.755 68.1749 67.755 74.0699C67.755 79.9649 72.54 84.7499 78.45 84.7499C84.36 84.7499 89.145 79.9649 89.145 74.0699C89.145 68.1749 84.36 63.3899 78.45 63.3899ZM78.45 81.0599C74.595 81.0599 71.475 77.9399 71.475 74.0849C71.475 70.2299 74.595 67.1099 78.45 67.1099C82.305 67.1099 85.425 70.2299 85.425 74.0849C85.425 77.9399 82.305 81.0599 78.45 81.0599Z" fill="white"/>
<path d="M104.07 76.9198C106.8 76.0498 108.78 73.4848 108.78 70.4548C108.78 66.7198 105.75 63.6898 102.015 63.6748H94.125V84.5098H97.83V75.2398L105.555 84.5098H110.37L104.04 76.9198H104.07ZM97.845 73.5298V67.3948H101.97C103.665 67.3948 105.03 68.7748 105.03 70.4698C105.03 72.1648 103.65 73.5448 101.955 73.5448H97.83L97.845 73.5298Z" fill="white"/>
<path d="M31.38 63.3899C25.47 63.3899 20.685 68.1749 20.685 74.0699C20.685 79.9649 25.47 84.7499 31.38 84.7499C37.29 84.7499 42.06 79.9649 42.06 74.0699C42.06 68.1749 37.275 63.3899 31.38 63.3899ZM31.38 81.0599C27.525 81.0599 24.405 77.9399 24.405 74.0849C24.405 70.2299 27.525 67.1099 31.38 67.1099C35.235 67.1099 38.355 70.2299 38.355 74.0849C38.355 77.9399 35.235 81.0599 31.38 81.0599Z" fill="white"/>
<path d="M320.475 74.1149H311.925C309.99 74.1149 308.415 72.5399 308.415 70.6049V67.2449C308.415 65.3099 309.99 63.7349 311.925 63.7349H320.475C322.41 63.7349 323.985 65.3099 323.985 67.2449V70.6049C323.985 72.5399 322.41 74.1149 320.475 74.1149ZM311.91 64.2599C310.26 64.2599 308.925 65.5949 308.925 67.2449V70.6049C308.925 72.2549 310.26 73.5899 311.91 73.5899H320.46C322.11 73.5899 323.445 72.2549 323.445 70.6049V67.2449C323.445 65.5949 322.11 64.2599 320.46 64.2599H311.91Z" fill="white"/>
<path d="M313.275 71.835C312.81 71.835 312.435 71.7 312.105 71.415C311.79 71.13 311.595 70.77 311.535 70.32H312.195C312.24 70.59 312.36 70.8 312.555 70.965C312.75 71.145 313.005 71.235 313.29 71.235C313.62 71.235 313.89 71.13 314.1 70.92C314.325 70.695 314.43 70.395 314.43 70.02C314.43 69.63 314.31 69.315 314.085 69.105C313.875 68.91 313.635 68.82 313.32 68.82C312.915 68.82 312.57 68.94 312.3 69.195H311.715L312 66.105H314.73V66.69H312.585L312.405 68.52C312.66 68.325 312.99 68.22 313.395 68.22C313.875 68.22 314.28 68.385 314.61 68.715C314.955 69.045 315.12 69.48 315.12 69.99C315.12 70.56 314.955 71.01 314.61 71.34C314.28 71.67 313.83 71.835 313.26 71.835H313.275Z" fill="white"/>
<path d="M318.63 71.7749C317.805 71.7749 317.145 71.5199 316.635 70.9949C316.125 70.4699 315.885 69.7649 315.885 68.8949C315.885 68.0249 316.155 67.2899 316.695 66.7799C317.205 66.2849 317.88 66.0449 318.72 66.0449C319.155 66.0449 319.545 66.1199 319.905 66.2699C320.235 66.4049 320.49 66.5999 320.7 66.8399L320.235 67.3049C320.055 67.1099 319.845 66.9599 319.62 66.8549C319.35 66.7349 319.05 66.6749 318.69 66.6749C318.105 66.6749 317.61 66.8699 317.22 67.2449C316.8 67.6499 316.59 68.2049 316.59 68.9099C316.59 69.6149 316.785 70.1399 317.16 70.5599C317.535 70.9649 318.03 71.1749 318.645 71.1749C319.035 71.1749 319.38 71.1149 319.695 70.9949C319.98 70.8899 320.16 70.7549 320.25 70.6049V69.4499H318.735V68.8499H320.925V70.8749C320.745 71.1449 320.475 71.3549 320.085 71.5199C319.665 71.6999 319.185 71.7899 318.63 71.7899V71.7749Z" fill="white"/>
<path d="M41.34 0.344971H49.005C53.37 0.344971 55.215 2.09997 55.215 7.04997C55.215 12.435 53.31 13.95 48.96 13.95H45.36V21.18H41.355V0.344971H41.34ZM45.345 3.97497V10.56H48.39C50.55 10.56 51.075 10.095 51.075 7.19997C51.075 4.54497 50.46 3.97497 48.39 3.97497H45.345Z" fill="white"/>
<path d="M59.1154 10.71C59.1154 2.19 60.9904 0 67.1554 0C73.3204 0 75.1954 2.19 75.1954 10.71C75.1954 19.23 73.6204 21.54 67.1554 21.54C60.6904 21.54 59.1154 18.9 59.1154 10.71ZM71.0254 10.65C71.0254 4.62 70.5304 3.63 67.1704 3.63C63.8104 3.63 63.3154 4.62 63.3154 10.65C63.3154 17.52 63.8104 18.315 67.1704 18.315C70.5304 18.315 71.0254 17.52 71.0254 10.65Z" fill="white"/>
<path d="M80.235 0.344971H87.75C92.115 0.344971 94.095 1.88997 94.095 7.04997C94.095 10.905 92.925 12.705 90.585 13.26L94.71 21.195H90.285L86.715 13.965H84.225V21.195H80.22V0.344971H80.235ZM84.255 3.97497V10.56H87.24C89.265 10.56 89.985 10.26 89.985 7.19997C89.985 4.39497 89.28 3.97497 87.12 3.97497H84.255Z" fill="white"/>
<path d="M102.21 14.775C102.36 17.46 102.975 18.315 105.435 18.315C107.685 18.315 108.48 17.61 108.48 15.645C108.48 13.98 107.685 13.425 105.495 12.87L103.89 12.465C100.32 11.565 98.445 10.125 98.445 6.12C98.445 2.115 100.26 0 105.315 0C110.73 0 112.155 2.13 112.305 6.9H108.42C108.27 4.185 107.625 3.63 105.375 3.63C103.38 3.63 102.48 4.275 102.48 6.06C102.48 7.935 103.305 8.37 105.555 8.955L107.16 9.36C110.76 10.26 112.545 11.94 112.545 15.54C112.545 19.395 110.64 21.54 105.375 21.54C100.11 21.54 98.505 19.695 98.265 14.775H102.21Z" fill="white"/>
<path d="M116.595 10.71C116.595 2.19 118.47 0 124.635 0C130.8 0 131.685 2.52 131.925 8.19H128.04C127.89 4.59 127.305 3.63 124.65 3.63C121.29 3.63 120.795 4.62 120.795 10.65C120.795 17.52 121.29 18.315 124.65 18.315C127.305 18.315 127.89 17.265 128.04 13.605H131.925C131.685 19.23 130.11 21.54 124.635 21.54C118.17 21.54 116.595 18.9 116.595 10.71Z" fill="white"/>
<path d="M136.725 0.344971H140.73V9.02997H147.555V0.344971H151.56V21.18H147.555V12.435H140.73V21.18H136.725V0.344971Z" fill="white"/>
<path d="M157.365 0.344971H169.71V3.97497H161.37V9.02997H169.005V12.42H161.37V17.955H169.71V21.18H157.365V0.344971Z" fill="white"/>
<path d="M182.31 0.344971H189.57C195.75 0.344971 197.61 2.53497 197.61 10.71C197.61 18.885 195.885 21.18 189.45 21.18H182.31V0.344971ZM186.33 3.97497V17.955H189.585C192.855 17.955 193.44 17.19 193.44 10.635C193.44 4.96497 192.855 3.95997 189.585 3.95997H186.33V3.97497Z" fill="white"/>
<path d="M202.65 0.344971H214.995V3.97497H206.655V9.02997H214.29V12.42H206.655V17.955H214.995V21.18H202.65V0.344971Z" fill="white"/>
<path d="M223.035 14.775C223.185 17.46 223.8 18.315 226.26 18.315C228.51 18.315 229.305 17.61 229.305 15.645C229.305 13.98 228.51 13.425 226.32 12.87L224.715 12.465C221.145 11.565 219.27 10.125 219.27 6.12C219.27 2.115 221.085 0 226.14 0C231.555 0 232.98 2.13 233.13 6.9H229.245C229.095 4.185 228.45 3.63 226.2 3.63C224.205 3.63 223.305 4.275 223.305 6.06C223.305 7.935 224.13 8.37 226.38 8.955L227.985 9.36C231.585 10.26 233.37 11.94 233.37 15.54C233.37 19.395 231.465 21.54 226.2 21.54C220.935 21.54 219.33 19.695 219.09 14.775H223.035Z" fill="white"/>
<path d="M238.215 0.344971H242.22V21.18H238.215V0.344971Z" fill="white"/>
<path d="M255.3 9.72H262.875V13.2C262.875 18.99 261.18 21.54 255.3 21.54C248.835 21.54 247.26 18.9 247.26 10.71C247.26 2.52 249.135 0 255.3 0C261.09 0 262.38 2.34 262.695 6.9H258.84C258.69 4.275 257.64 3.63 255.3 3.63C251.94 3.63 251.445 4.62 251.445 10.65C251.445 17.52 251.94 18.315 255.3 18.315C258.135 18.315 258.96 17.49 258.96 13.605V13.11H255.3V9.72Z" fill="white"/>
<path d="M267.81 0.344971H272.055L278.895 13.71V0.344971H282.645V21.18H278.67L271.56 7.30497V21.18H267.81V0.344971Z" fill="white"/>
<path d="M106.785 42.855L217.2 42.855V42.165L106.785 42.165V42.855Z" fill="white"/>
</g>
<defs>
<clipPath id="clip0_544_13384">
<rect width="323.985" height="90.975" fill="white"/>
</clipPath>
</defs>
</svg>
