<svg width="301" height="92" viewBox="0 0 301 92" fill="none" xmlns="http://www.w3.org/2000/svg">
<g clip-path="url(#clip0_544_13447)">
<path d="M29.625 0.345215H37.29C41.655 0.345215 43.485 2.10021 43.485 7.05021C43.485 12.4352 41.58 13.9502 37.23 13.9502H33.63V21.1802H29.625V0.345215ZM33.645 3.97521V10.5602H36.69C38.85 10.5602 39.375 10.0952 39.375 7.20022C39.375 4.54522 38.76 3.97521 36.69 3.97521H33.645Z" fill="white"/>
<path d="M47.415 10.71C47.415 2.19 49.29 0 55.455 0C61.62 0 63.495 2.19 63.495 10.71C63.495 19.23 61.92 21.54 55.455 21.54C48.99 21.54 47.415 18.9 47.415 10.71ZM59.31 10.65C59.31 4.62 58.815 3.63 55.455 3.63C52.095 3.63 51.6 4.62 51.6 10.65C51.6 17.52 52.095 18.315 55.455 18.315C58.815 18.315 59.31 17.52 59.31 10.65Z" fill="white"/>
<path d="M68.52 0.345215H76.035C80.4 0.345215 82.38 1.89021 82.38 7.05021C82.38 10.9052 81.21 12.6902 78.87 13.2602L82.995 21.1802H78.585L75.015 13.9502H72.525V21.1802H68.52V0.345215ZM72.525 3.97521V10.5602H75.51C77.535 10.5602 78.255 10.2602 78.255 7.20022C78.255 4.39522 77.55 3.97521 75.39 3.97521H72.525Z" fill="white"/>
<path d="M90.48 14.7751C90.63 17.4601 91.245 18.3151 93.705 18.3151C95.955 18.3151 96.75 17.6101 96.75 15.6601C96.75 13.9951 95.955 13.4401 93.765 12.8851L92.16 12.4801C88.59 11.5801 86.715 10.1401 86.715 6.13514C86.715 2.13014 88.53 0.0151367 93.585 0.0151367C99 0.0151367 100.425 2.14514 100.575 6.91514H96.69C96.54 4.20014 95.895 3.64514 93.645 3.64514C91.65 3.64514 90.75 4.29014 90.75 6.07514C90.75 7.95014 91.575 8.38514 93.825 8.97014L95.43 9.37514C99.03 10.2751 100.815 11.9551 100.815 15.5401C100.815 19.3951 98.91 21.5401 93.645 21.5401C88.38 21.5401 86.775 19.6951 86.535 14.7751H90.48Z" fill="white"/>
<path d="M104.865 10.71C104.865 2.19 106.74 0 112.905 0C119.07 0 119.955 2.52 120.195 8.19H116.31C116.16 4.59 115.575 3.63 112.92 3.63C109.56 3.63 109.065 4.62 109.065 10.65C109.065 17.52 109.56 18.315 112.92 18.315C115.575 18.315 116.16 17.265 116.31 13.605H120.195C119.955 19.215 118.38 21.54 112.905 21.54C106.44 21.54 104.865 18.9 104.865 10.71Z" fill="white"/>
<path d="M124.995 0.345215H129V9.03021H135.81V0.345215H139.815V21.1802H135.81V12.4352H129V21.1802H124.995V0.345215Z" fill="white"/>
<path d="M145.635 0.345215H157.98V3.97521H149.64V9.03021H157.275V12.4202H149.64V17.9552H157.98V21.1802H145.635V0.345215Z" fill="white"/>
<path d="M170.58 0.345215H177.84C184.005 0.345215 185.88 2.53521 185.88 10.6952C185.88 18.8552 184.155 21.1652 177.72 21.1652H170.58V0.345215ZM174.585 3.97521V17.9552H177.825C181.095 17.9552 181.68 17.1902 181.68 10.6352C181.68 4.96522 181.095 3.96021 177.825 3.96021H174.585V3.97521Z" fill="white"/>
<path d="M190.905 0.345215H203.25V3.97521H194.91V9.03021H202.545V12.4202H194.91V17.9552H203.25V21.1802H190.905V0.345215Z" fill="white"/>
<path d="M211.29 14.7751C211.44 17.4601 212.055 18.3151 214.515 18.3151C216.765 18.3151 217.56 17.6101 217.56 15.6601C217.56 13.9951 216.765 13.4401 214.575 12.8851L212.97 12.4801C209.4 11.5801 207.525 10.1401 207.525 6.13514C207.525 2.13014 209.34 0.0151367 214.395 0.0151367C219.81 0.0151367 221.235 2.14514 221.385 6.91514H217.5C217.35 4.20014 216.705 3.64514 214.455 3.64514C212.46 3.64514 211.56 4.29014 211.56 6.07514C211.56 7.95014 212.385 8.38514 214.635 8.97014L216.24 9.37514C219.84 10.2751 221.625 11.9551 221.625 15.5401C221.625 19.3951 219.72 21.5401 214.455 21.5401C209.19 21.5401 207.585 19.6951 207.345 14.7751H211.29Z" fill="white"/>
<path d="M226.455 0.345215H230.46V21.1802H226.455V0.345215Z" fill="white"/>
<path d="M243.54 9.70511H251.115V13.1851C251.115 18.9751 249.42 21.5251 243.54 21.5251C237.075 21.5251 235.5 18.8851 235.5 10.6951C235.5 2.50511 237.375 -0.0148926 243.54 -0.0148926C249.33 -0.0148926 250.62 2.32511 250.935 6.88511H247.08C246.93 4.26011 245.88 3.61511 243.54 3.61511C240.18 3.61511 239.685 4.60511 239.685 10.6351C239.685 17.5051 240.18 18.3001 243.54 18.3001C246.375 18.3001 247.2 17.4751 247.2 13.5901V13.0951H243.54V9.70511Z" fill="white"/>
<path d="M256.05 0.345215H260.295L267.135 13.7102V0.345215H270.885V21.1802H266.91L259.8 7.32021V21.1802H256.05V0.345215Z" fill="white"/>
<path d="M95.04 43.0652L205.455 43.0652V42.3752L95.04 42.3752V43.0652Z" fill="white"/>
<path d="M11.97 63.99H15.675V84.825H11.97V76.14H3.705V84.825H0V63.99H3.705V72.435H11.97V63.99Z" fill="white"/>
<path d="M59.0399 76.995L50.0249 63.99H47.0699V84.825H50.7749V71.76L59.8349 84.825H62.745V63.99H59.0399V76.995Z" fill="white"/>
<path d="M78.45 63.7051C72.555 63.7051 67.755 68.4901 67.755 74.4001C67.755 80.3101 72.54 85.0801 78.45 85.0801C84.36 85.0801 89.145 80.2951 89.145 74.4001C89.145 68.5051 84.36 63.7051 78.45 63.7051ZM78.45 81.3751C74.595 81.3751 71.475 78.2551 71.475 74.4001C71.475 70.5451 74.595 67.4251 78.45 67.4251C82.305 67.4251 85.425 70.5451 85.425 74.4001C85.425 78.2551 82.305 81.3751 78.45 81.3751Z" fill="white"/>
<path d="M104.07 77.2201C106.8 76.3501 108.795 73.7851 108.795 70.7551C108.795 67.0201 105.765 63.9901 102.03 63.9751H94.14V84.8101H97.845V75.5401L105.57 84.8101H110.385L104.055 77.2201H104.07ZM97.86 73.8301V67.6951H101.985C103.68 67.6951 105.045 69.0751 105.045 70.7701C105.045 72.4651 103.665 73.8451 101.97 73.8451H97.845L97.86 73.8301Z" fill="white"/>
<path d="M31.3801 63.7051C25.4701 63.7051 20.6851 68.4901 20.6851 74.4001C20.6851 80.3101 25.4701 85.0801 31.3801 85.0801C37.2901 85.0801 42.0751 80.2951 42.0751 74.4001C42.0751 68.5051 37.2901 63.7051 31.3801 63.7051ZM31.3801 81.3751C27.5251 81.3751 24.4051 78.2551 24.4051 74.4001C24.4051 70.5451 27.5251 67.4251 31.3801 67.4251C35.2351 67.4251 38.3551 70.5451 38.3551 74.4001C38.3551 78.2551 35.2351 81.3751 31.3801 81.3751Z" fill="white"/>
<path d="M125.775 63.99L133.23 77.985H133.29L140.805 63.99H143.58V84.825H141.03V68.475H140.97L133.89 81.99H132.645L125.535 68.475H125.475V84.825H122.925V63.99H125.79H125.775Z" fill="white"/>
<path d="M153.915 69.3449C155.58 69.3449 156.93 69.8249 157.995 70.7699C159.15 71.7899 159.72 73.1849 159.72 74.9699V84.8249H157.425V82.7849H157.335C156.9 83.4149 156.27 83.9249 155.43 84.3449C154.47 84.8399 153.405 85.0799 152.22 85.0799C150.78 85.0799 149.58 84.6599 148.59 83.8349C147.555 82.9649 147.03 81.8399 147.03 80.4299C147.03 78.8849 147.6 77.6549 148.755 76.7399C149.865 75.8549 151.32 75.4049 153.09 75.4049C154.56 75.4049 155.955 75.6599 157.26 76.1699V75.0299C157.26 73.8749 156.93 73.0049 156.27 72.3899C155.64 71.8199 154.83 71.5349 153.84 71.5349C152.085 71.5349 150.555 72.2699 149.28 73.7399L147.72 72.0899C148.425 71.2649 149.295 70.6049 150.33 70.1099C151.44 69.5849 152.64 69.3149 153.9 69.3149L153.915 69.3449ZM149.61 80.3099C149.61 81.1049 149.895 81.7349 150.465 82.2149C151.02 82.6649 151.77 82.8899 152.73 82.8899C153.975 82.8899 155.04 82.5449 155.91 81.8699C156.84 81.1499 157.305 80.2199 157.305 79.0649V78.2699C156.375 77.7599 155.01 77.4749 153.195 77.4149C152.19 77.4149 151.365 77.6399 150.735 78.0899C150 78.6149 149.625 79.3499 149.625 80.2949L149.61 80.3099Z" fill="white"/>
<path d="M169.845 91.3051C167.355 91.3051 165.24 90.4801 163.53 88.8151L164.865 86.9701C166.275 88.3801 167.94 89.1001 169.86 89.1001C171.555 89.1001 172.815 88.6201 173.595 87.6901C174.225 86.9401 174.525 85.8901 174.525 84.5701V82.5601H174.435C174.015 83.2051 173.415 83.7301 172.62 84.1501C171.69 84.6451 170.685 84.8851 169.59 84.8851C167.745 84.8851 166.17 84.2401 164.88 82.9351C163.62 81.6151 162.96 79.7101 162.9 77.2051C162.9 74.9251 163.545 73.0351 164.85 71.5651C166.155 70.0951 167.805 69.3601 169.785 69.3601C170.82 69.3601 171.81 69.6301 172.755 70.1551C173.58 70.6351 174.21 71.1901 174.63 71.8501H174.66V69.6451H176.955V84.5851C176.955 86.7151 176.34 88.3651 175.11 89.5501C173.865 90.7351 172.11 91.3351 169.845 91.3351V91.3051ZM165.45 77.0851C165.45 78.8101 165.885 80.1751 166.755 81.1951C167.58 82.1851 168.63 82.6651 169.905 82.6651C171.375 82.6651 172.545 82.1701 173.415 81.1951C174.27 80.2351 174.69 78.9451 174.69 77.3401C174.69 75.4651 174.21 74.0101 173.28 72.9751C172.425 72.0301 171.36 71.5651 170.055 71.5651C168.75 71.5651 167.67 72.0901 166.8 73.1251C165.915 74.1901 165.465 75.5101 165.465 77.0851H165.45Z" fill="white"/>
<path d="M181.095 65.6701C181.095 65.2201 181.23 64.8301 181.515 64.5151C181.815 64.1701 182.22 64.0051 182.7 64.0051C183.18 64.0051 183.6 64.1701 183.915 64.5151C184.2 64.8151 184.335 65.2051 184.335 65.6701C184.335 66.1051 184.185 66.4801 183.885 66.8101C183.57 67.1551 183.165 67.3201 182.7 67.3201C182.235 67.3201 181.86 67.1551 181.545 66.8101C181.245 66.4951 181.095 66.1051 181.095 65.6701ZM181.515 84.8251V69.6301H183.945V84.8251H181.515Z" fill="white"/>
<path d="M195.06 69.345C196.17 69.345 197.235 69.57 198.24 70.02C199.185 70.455 199.965 71.01 200.565 71.685L199.035 73.215C198.6 72.765 198.06 72.39 197.415 72.075C196.665 71.715 195.87 71.535 195.06 71.535C193.515 71.535 192.285 72.03 191.4 73.005C190.515 73.98 190.065 75.36 190.065 77.145C190.065 78.93 190.485 80.31 191.34 81.315C192.21 82.335 193.425 82.845 194.97 82.845C196.665 82.845 198.15 82.08 199.395 80.55L200.895 82.05C200.37 82.86 199.59 83.5501 198.57 84.1201C197.415 84.7501 196.185 85.05 194.85 85.05C192.615 85.05 190.83 84.33 189.495 82.89C188.175 81.48 187.515 79.56 187.515 77.13C187.515 74.7 188.19 72.93 189.555 71.49C190.935 70.035 192.765 69.3 195.06 69.3V69.345Z" fill="white"/>
<path d="M210.6 63.99H213.375L208.02 73.035L208.05 73.065C208.8 72.63 209.895 72.36 211.305 72.27C213.105 72.27 214.575 72.87 215.73 74.055C216.9 75.27 217.485 76.8 217.485 78.645C217.485 80.49 216.825 82.17 215.505 83.43C214.215 84.66 212.61 85.275 210.69 85.275C208.665 85.275 207.03 84.645 205.785 83.37C204.555 82.125 203.94 80.535 203.94 78.615C203.94 77.46 204.255 76.125 204.9 74.625C205.29 73.68 206.07 72.165 207.225 70.095L210.6 64.005V63.99ZM206.46 78.735C206.46 80.1 206.835 81.165 207.6 81.945C208.335 82.695 209.34 83.085 210.6 83.085C211.86 83.085 212.91 82.71 213.69 81.975C214.515 81.195 214.935 80.13 214.935 78.765C214.935 77.4 214.59 76.38 213.885 75.615C213.18 74.865 212.205 74.475 210.945 74.475C209.685 74.475 208.56 74.835 207.735 75.585C206.88 76.365 206.46 77.415 206.46 78.735Z" fill="white"/>
<path d="M244.29 84.825H241.35L235.515 76.515H231.345V84.825H228.795V63.99H235.23C237.75 63.99 239.64 64.425 240.93 65.295C242.46 66.315 243.225 67.98 243.225 70.305C243.105 73.605 241.455 75.615 238.26 76.32L244.29 84.825ZM231.33 74.31H235.155C236.895 74.31 238.17 74.07 238.98 73.605C240.045 72.975 240.57 71.88 240.57 70.32C240.57 68.76 240.045 67.665 238.98 67.005C238.125 66.48 236.895 66.21 235.26 66.21H231.315V74.31H231.33Z" fill="white"/>
<path d="M258.03 67.815C256.995 66.51 255.495 65.865 253.53 65.865C252.435 65.865 251.505 66.135 250.755 66.66C249.9 67.26 249.48 68.1 249.48 69.18C249.48 70.2 249.825 70.98 250.53 71.535C251.13 72.015 252.27 72.495 253.935 72.975C255.915 73.545 257.415 74.25 258.435 75.105C259.77 76.215 260.445 77.655 260.445 79.41C260.445 81.285 259.725 82.755 258.27 83.835C256.965 84.795 255.33 85.275 253.365 85.275C252.03 85.275 250.725 85.035 249.48 84.54C248.145 84.015 247.11 83.295 246.39 82.38L248.04 80.73C248.67 81.435 249.48 81.975 250.5 82.38C251.46 82.755 252.465 82.95 253.5 82.95C254.76 82.95 255.78 82.665 256.56 82.095C257.385 81.495 257.805 80.64 257.805 79.545C257.805 78.21 257.325 77.19 256.395 76.515C255.75 76.065 254.475 75.555 252.57 74.985C250.77 74.475 249.405 73.8 248.46 72.945C247.38 71.985 246.84 70.785 246.84 69.345C246.84 67.5 247.545 66.045 248.94 64.98C250.2 64.02 251.775 63.54 253.65 63.54C256.14 63.6 258.18 64.47 259.74 66.15L258.045 67.815H258.03Z" fill="white"/>
<path d="M279.69 84.825H276.75L270.915 76.515H266.745V84.825H264.195V63.99H270.63C273.15 63.99 275.04 64.425 276.33 65.295C277.86 66.315 278.625 67.98 278.625 70.305C278.505 73.605 276.855 75.615 273.66 76.32L279.69 84.825ZM266.73 74.31H270.555C272.295 74.31 273.57 74.07 274.38 73.605C275.445 72.975 275.97 71.88 275.97 70.32C275.97 68.76 275.445 67.665 274.38 67.005C273.525 66.48 272.295 66.21 270.66 66.21H266.715V74.31H266.73Z" fill="white"/>
<path d="M297 74.4001H288.42C286.47 74.4001 284.895 72.8251 284.895 70.8751V67.5001C284.895 65.5501 286.47 63.9751 288.42 63.9751H297C298.95 63.9751 300.525 65.5501 300.525 67.5001V70.8751C300.525 72.8251 298.95 74.4001 297 74.4001ZM288.42 64.5151C286.77 64.5151 285.42 65.8651 285.42 67.5151V70.8901C285.42 72.5401 286.77 73.8901 288.42 73.8901H297C298.65 73.8901 300 72.5401 300 70.8901V67.5151C300 65.8651 298.65 64.5151 297 64.5151H288.42Z" fill="white"/>
<path d="M289.77 72.1201C289.305 72.1201 288.915 71.9701 288.6 71.6851C288.285 71.4001 288.09 71.0401 288.03 70.5901H288.69C288.735 70.8601 288.855 71.0701 289.05 71.2351C289.245 71.4151 289.5 71.5051 289.785 71.5051C290.115 71.5051 290.4 71.4001 290.61 71.1901C290.835 70.9651 290.94 70.6651 290.94 70.2901C290.94 69.9001 290.82 69.5851 290.595 69.3751C290.385 69.1801 290.13 69.0901 289.83 69.0901C289.425 69.0901 289.08 69.2101 288.81 69.4651H288.225L288.51 66.3601H291.24V66.9451H289.08L288.9 68.7901C289.155 68.5951 289.485 68.4901 289.89 68.4901C290.37 68.4901 290.775 68.6551 291.105 68.9851C291.45 69.3151 291.615 69.7501 291.615 70.2601C291.615 70.8301 291.45 71.2801 291.105 71.6101C290.775 71.9401 290.325 72.1051 289.755 72.1051L289.77 72.1201Z" fill="white"/>
<path d="M294.99 72.0602C294.165 72.0602 293.505 71.7902 292.995 71.2652C292.485 70.7402 292.245 70.0352 292.245 69.1502C292.245 68.2652 292.515 67.5452 293.055 67.0202C293.565 66.5252 294.24 66.2852 295.08 66.2852C295.515 66.2852 295.905 66.3602 296.265 66.5102C296.595 66.6452 296.85 66.8402 297.06 67.0802L296.595 67.5452C296.415 67.3502 296.205 67.2002 295.98 67.0952C295.71 66.9752 295.395 66.9152 295.05 66.9152C294.465 66.9152 293.97 67.1102 293.58 67.4852C293.16 67.9052 292.95 68.4602 292.95 69.1502C292.95 69.8402 293.145 70.3802 293.52 70.8002C293.895 71.2202 294.405 71.4152 295.005 71.4152C295.395 71.4152 295.74 71.3552 296.055 71.2352C296.34 71.1302 296.52 70.9952 296.61 70.8302V69.6752H295.095V69.0752H297.285V71.1152C297.105 71.3852 296.82 71.5952 296.445 71.7602C296.025 71.9402 295.53 72.0302 294.99 72.0302V72.0602Z" fill="white"/>
</g>
<defs>
<clipPath id="clip0_544_13447">
<rect width="300.51" height="91.305" fill="white"/>
</clipPath>
</defs>
</svg>
